<svg xmlns:xlink="http://www.w3.org/1999/xlink" xmlns="http://www.w3.org/2000/svg" class="anqpypq" width="69"  height="26" ><defs><symbol fill="none" id="accents_underline" viewBox="0 0 65 23">
<path fill-rule="evenodd" clip-rule="evenodd" d="M1.70673 9.97895C10.7305 10.5276 19.7768 10.5667 28.8048 10.4038C20.7096 11.5693 12.589 12.5866 4.50319 13.4971C3.0961 13.6558 4.49787 16.536 5.65864 16.5103C15.8562 16.2845 26.0384 15.9104 36.2236 15.5532C35.7351 15.6588 35.2466 15.765 34.7586 15.8724C28.7363 17.1932 22.744 18.6289 16.7553 20.0745C15.6784 20.3343 17.1032 23.2892 18.3945 22.9769C24.8286 21.4239 31.2663 19.8814 37.7429 18.4877C42.1296 17.5439 47.7739 17.4126 51.5906 14.9993C52.6161 14.3503 51.2497 12.0094 50.1929 12.0409C45.4873 12.1798 40.7834 12.3397 36.0807 12.5043C42.5939 11.4999 49.0812 10.3933 55.5088 9.15078C56.2195 9.01363 56.1557 8.16212 55.9211 7.64094C54.8035 5.15935 54.9021 5.28542 51.1074 5.77625C49.6176 5.96943 47.7409 6.39372 46.2198 6.61842C44.9728 6.80343 43.6466 6.78184 42.3854 6.85304C39.5092 7.01354 36.6306 7.14194 33.7503 7.23765C28.2123 7.42149 22.6601 7.52129 17.1068 7.49036C21.0073 7.04155 24.9137 6.62776 28.8231 6.24607C34.5867 5.68228 40.361 5.20896 46.1241 4.64226C49.1249 4.34753 52.1293 4.04579 55.1136 3.63083C58.1287 3.2112 61.1384 2.68594 64.1841 3.30167C65.7997 3.62733 64.7045 0.615227 63.5763 0.387612C57.8735 -0.763885 51.6213 0.961902 45.9291 1.53386C39.5269 2.1776 33.1099 2.69353 26.7065 3.32676C20.4561 3.94482 14.2335 4.71346 7.99965 5.44708C6.10168 5.67119 1.10419 5.2288 0.125962 7.17987C-0.338343 8.10609 0.546554 9.90833 1.70673 9.97895Z" fill="#FFCD1F"></path>
</symbol></defs><noscript fill="#303545"></noscript><use xlink:href="#accents_underline" fill="#303545"></use><noscript fill="#303545"></noscript></svg>