<svg xmlns:xlink="http://www.w3.org/1999/xlink" xmlns="http://www.w3.org/2000/svg" aria-label="search" class="AssemblyIcon AssemblyIcon--medium" role="img" width="20"  height="20" ><defs><symbol id="search" viewBox="0 0 20 20">
<path fill-rule="evenodd" clip-rule="evenodd" d="M2 9C2 12.866 5.13401 16 9 16C10.3239 16 11.562 15.6324 12.6178 14.9938L16.339 18.715C16.719 19.095 17.3351 19.095 17.715 18.715C18.095 18.3351 18.095 17.719 17.715 17.339L14.1342 13.7582C15.2921 12.5094 16 10.8374 16 9C16 5.13401 12.866 2 9 2C5.13401 2 2 5.13401 2 9ZM14.1333 9C14.1333 11.8351 11.8351 14.1333 9 14.1333C6.16494 14.1333 3.86667 11.8351 3.86667 9C3.86667 6.16494 6.16494 3.86667 9 3.86667C11.8351 3.86667 14.1333 6.16494 14.1333 9Z"></path>
</symbol></defs><noscript fill="#CEDAF3"></noscript><use xlink:href="#search" fill="#CEDAF3"></use><noscript fill="#CEDAF3"></noscript></svg>