<svg xmlns:xlink="http://www.w3.org/1999/xlink" xmlns="http://www.w3.org/2000/svg" aria-label="Options" class="UIIcon UIIcon--system-more-vertical UIIcon--large" role="img" width="20"  height="20" ><defs><symbol id="system-more-vertical" viewBox="0 0 20 20">
<path fill-rule="evenodd" clip-rule="evenodd" d="M10 6C11.1 6 12 5.1 12 4C12 2.9 11.1 2 10 2C8.9 2 8 2.9 8 4C8 5.1 8.9 6 10 6ZM10 8C8.9 8 8 8.9 8 10C8 11.1 8.9 12 10 12C11.1 12 12 11.1 12 10C12 8.9 11.1 8 10 8ZM10 14C8.9 14 8 14.9 8 16C8 17.1 8.9 18 10 18C11.1 18 12 17.1 12 16C12 14.9 11.1 14 10 14Z"></path>
</symbol></defs><noscript fill="#303545"></noscript><use xlink:href="#system-more-vertical" fill="#303545"></use><noscript fill="#303545"></noscript></svg>